<svg width="200" height="50" viewBox="0 0 200 50" fill="none" xmlns="http://www.w3.org/2000/svg">
  <path d="M10 25C10 16.716 16.716 10 25 10H40C48.284 10 55 16.716 55 25C55 33.284 48.284 40 40 40H25C16.716 40 10 33.284 10 25Z" fill="#FFD700"/>
  <circle cx="25" cy="25" r="15" fill="#FFFFFF"/>
  <path d="M65 15H75L80 25L85 15H95V35H90V20L83 35H77L70 20V35H65V15Z" fill="#333333"/>
  <path d="M100 15H120V20H105V22H115V27H105V30H120V35H100V15Z" fill="#333333"/>
  <path d="M125 15H130V30H145V35H125V15Z" fill="#333333"/>
  <path d="M150 15H165C170 15 175 20 175 25C175 30 170 35 165 35H150V15ZM155 20V30H165C167.5 30 170 27.5 170 25C170 22.5 167.5 20 165 20H155Z" fill="#333333"/>
</svg> 